Results																																																																																																																																																																																																																			
version=1																																																																																																																																																																																																																			
nRows=4																																																																																																																																																																																																																			
nColumns=212																																																																																																																																																																																																																			
inDegrees=yes																																																																																																																																																																																																																			
endheader																																																																																																																																																																																																																			
time	pelvis_tilt	pelvis_list	pelvis_rotation	pelvis_tx	pelvis_ty	pelvis_tz	back_tilt	back_list	back_rotation	hip_flexion_r	hip_adduction_r	hip_rotation_r	knee_angle_r	ankle_angle_r	subtalar_angle_r	mtp_angle_r	hip_flexion_l	hip_adduction_l	hip_rotation_l	knee_angle_l	ankle_angle_l	subtalar_angle_l	mtp_angle_l	sternoclavicular_r2	sternoclavicular_r3	unrotscap_r3	unrotscap_r2	acromioclavicular_r2	acromioclavicular_r3	acromioclavicular_r1	unrothum_r1	unrothum_r3	unrothum_r2	elv_angle	shoulder_elv	shoulder1_r2	shoulder_rot	elbow_flexion	pro_sup	deviation	flexion	proximal_distal_r1	proximal_distal_r3	cmc_flexion	cmc_abduction	mp_flexion	ip_flexion	2mcp_flexion	2mcp_abduction	2pm_flexion	2md_flexion	bicpt_tx	bicpt_ty	bicpt_tz	bicpt2_tx	bicpt2_ty	bicpt2_tz	ptpt_tx	ptpt_ty	ptpt_tz	FCUpt_tx	FCUpt_ty	FCUpt_tz	EDCpt_tx	EDCpt_ty	EDCpt_tz	APLpt_tx	APLpt_ty	APLpt_tz	FPLpt_tx	FPLpt_ty	FPLpt_tz	FPLpt2_tx	FPLpt2_ty	FPLpt2_tz	PEC1pt2_tx	PEC1pt2_ty	PEC1pt2_tz	PEC1pt3_tx	PEC1pt3_ty	PEC1pt3_tz	PEC2pt2_tx	PEC2pt2_ty	PEC2pt2_tz	PEC2pt3_tx	PEC2pt3_ty	PEC2pt3_tz	PEC3pt2_tx	PEC3pt2_ty	PEC3pt2_tz	PEC3pt3_tx	PEC3pt3_ty	PEC3pt3_tz	DELT2pt2a_tx	DELT2pt2a_ty	DELT2pt2a_tz	DELT2pt2_tx	DELT2pt2_ty	DELT2pt2_tz	LAT1pt2_tx	LAT1pt2_ty	LAT1pt2_tz	LAT1pt3_tx	LAT1pt3_ty	LAT1pt3_tz	LAT2pt2_tx	LAT2pt2_ty	LAT2pt2_tz	LAT2pt3_tx	LAT2pt3_ty	LAT2pt3_tz	LAT3pt2_tx	LAT3pt2_ty	LAT3pt2_tz	LAT3pt3_tx	LAT3pt3_ty	LAT3pt3_tz	sternoclavicular_r2_l	sternoclavicular_r3_l	unrotscap_r3_l	unrotscap_r2_l	acromioclavicular_r2_l	acromioclavicular_r3_l	acromioclavicular_r1_l	unrothum_r1_l	unrothum_r3_l	unrothum_r2_l	elv_angle_l	shoulder_elv_l	shoulder1_r2_l	shoulder_rot_l	elbow_flexion_l	pro_sup_l	deviation_l	flexion_l	proximal_distal_r1_l	proximal_distal_r3_l	cmc_flexion_l	cmc_abduction_l	mp_flexion_l	ip_flexion_l	2mcp_flexion_l	2mcp_abduction_l	2pm_flexion_l	2md_flexion_l	bicpt_tx_l	bicpt_ty_l	bicpt_tz_l	bicpt2_tx_l	bicpt2_ty_l	bicpt2_tz_l	ptpt_tx_l	ptpt_ty_l	ptpt_tz_l	FCUpt_tx_l	FCUpt_ty_l	FCUpt_tz_l	EDCpt_tx_l	EDCpt_ty_l	EDCpt_tz_l	APLpt_tx_l	APLpt_ty_l	APLpt_tz_l	FPLpt_tx_l	FPLpt_ty_l	FPLpt_tz_l	FPLpt2_tx_l	FPLpt2_ty_l	FPLpt2_tz_l	PEC1pt2_tx_l	PEC1pt2_ty_l	PEC1pt2_tz_l	PEC1pt3_tx_l	PEC1pt3_ty_l	PEC1pt3_tz_l	PEC2pt2_tx_l	PEC2pt2_ty_l	PEC2pt2_tz_l	PEC2pt3_tx_l	PEC2pt3_ty_l	PEC2pt3_tz_l	PEC3pt2_tx_l	PEC3pt2_ty_l	PEC3pt2_tz_l	PEC3pt3_tx_l	PEC3pt3_ty_l	PEC3pt3_tz_l	DELT2pt2a_tx_l	DELT2pt2a_ty_l	DELT2pt2a_tz_l	DELT2pt2_tx_l	DELT2pt2_ty_l	DELT2pt2_tz_l	LAT1pt2_tx_l	LAT1pt2_ty_l	LAT1pt2_tz_l	LAT1pt3_tx_l	LAT1pt3_ty_l	LAT1pt3_tz_l	LAT2pt2_tx_l	LAT2pt2_ty_l	LAT2pt2_tz_l	LAT2pt3_tx_l	LAT2pt3_ty_l	LAT2pt3_tz_l	LAT3pt2_tx_l	LAT3pt2_ty_l	LAT3pt2_tz_l	LAT3pt3_tx_l	LAT3pt3_ty_l	LAT3pt3_tz_l
0	-0.00000061	0.0000053	22.00000026	0.07614243	0.60271577	-0.15465691	4.88735175	33.73309794	0.00000001	71.99999992	0	0	-49.99980313	0	0	0	71.99999992	0	0	-49.99986444	0	0	0	-14.04964339	5.95076583	-5.95076583	14.04964339	-2.84476699	22.99040618	10.33402935	-10.33402935	-22.99040618	2.84476699	39.65473595	58.0562475	-39.65473595	12.22200452	27.10971619	35.85328957	0.82546319	6.11072685	1.11053575	3.05536343	0	0	0.00000004	0.00000033	0.00016933	-0.00019073	0	0	0.00075812	-0.02921997	-0.00456799	0.01574558	-0.0167138	-0.007518	0.00466349	-0.06338677	-0.00279587	0.00700868	-0.17468775	-0.00033353	-0.00409401	0.00115541	0.00016322	-0.00013154	-0.00005262	-0.00026308	-0.00016837	-0.00050511	-0.00028412	0	0	0	0.00169121	0.00593356	0.00412769	-0.00577176	0.01393595	-0.01321822	0.00169121	0.00593356	0.00412769	0.00038877	0.01291917	-0.00678854	0.00284585	0.00329957	0.01232938	0	0.00417305	0	-0.0048443	-0.02238699	-0.00327447	-0.01142238	-0.00058891	-0.00227489	-0.00062802	0.01052673	-0.00430639	0.00173452	0.01519198	-0.0125603	-0.00421667	0.00912117	-0.00385781	-0.00879221	0.01925913	-0.02156185	-0.01650783	0.01019777	-0.00517365	-0.01094541	0.02224968	-0.02694484	-12.71089077	5.38373341	-5.38373341	12.71089077	-2.57369682	20.7997124	9.34932758	-9.34932758	-20.7997124	2.57369682	5.7834019	52.52422432	-5.7834019	0.00003782	50.80814252	-0.00017177	7.51632204	-0.00015437	9.39363801	-0.00007719	0	0	0.00000004	0.00000005	-0.00000691	0.00000014	0	0	0.00150402	-0.03180462	-0.00498431	0.01395899	-0.0228398	-0.01010415	0.00718435	-0.06175674	-0.00004757	0.00380626	-0.17518363	0.00047579	0.00000002	0	0	0	0	0.00000001	0	0.00000001	0.00000001	0	0	0	0.00153006	0.00536816	0.00373437	-0.00522178	0.01260803	-0.01195869	0.00153006	0.00536816	0.00373437	0.00035173	0.01168814	-0.00614168	0.00262207	0.00298517	0.01160009	0	0.00341953	0	-0.0043827	-0.02025379	-0.00266979	-0.00042727	0	0	-0.00056817	0.00952367	-0.00389605	0.00156924	0.01374438	-0.01136346	-0.00381488	0.00825204	-0.00349021	-0.00795443	0.01742398	-0.01950728	-0.01493484	0.00922605	-0.00468067	-0.00990245	0.02012957	-0.02437734
1	-0.00000061	0.0000053	22.00000026	0.07590127	0.60257796	-0.1546889	4.92946805	33.7504384	0.00000001	71.99999992	0	0	-49.99980313	0	0	0	71.99999992	0	0	-49.99986444	0	0	0	-14.06627257	5.95780917	-5.95780917	14.06627257	-2.84813407	23.01761767	10.34626073	-10.34626073	-23.01761767	2.84813407	39.76672173	58.12496299	-39.76672173	12.13753622	26.84803563	36.27783325	0.1487899	6.12373419	0.20165792	3.0618671	0	0	0.00000004	0.00000033	0.00016933	-0.00019073	0	0	0.00074988	-0.02919143	-0.00456339	0.01574997	-0.01664616	-0.0074771	0.00463364	-0.06340607	-0.00282842	0.00704886	-0.17467979	-0.0003376	-0.00414249	0.00117135	0.00016118	-0.00013184	-0.00005274	-0.00026368	-0.00016875	-0.00050626	-0.00028477	0	0	0	0.00169321	0.00594058	0.00413258	-0.00577859	0.01395245	-0.01323387	0.00169321	0.00594058	0.00413258	0.00038923	0.01293446	-0.00679658	0.00284857	0.00330348	0.01233794	0	0.00418291	0	-0.00485004	-0.02241349	-0.00328237	-0.01133973	-0.00058094	-0.00224621	-0.00062876	0.01053919	-0.00431149	0.00173657	0.01520997	-0.01257517	-0.00422166	0.00913197	-0.00386237	-0.00880262	0.01928193	-0.02158737	-0.01652736	0.01020984	-0.00517977	-0.01095836	0.02227601	-0.02697673	-12.75110157	5.40076481	-5.40076481	12.75110157	-2.58183869	20.86551212	9.3789041	-9.3789041	-20.86551212	2.58183869	5.8143865	52.69038427	-5.8143865	0.00003674	50.94595102	-0.00017039	7.51551926	-0.0001533	9.39272091	-0.00007665	0	0	0.00000004	0.00000005	-0.00000691	0.00000014	0	0	0.00150836	-0.03181965	-0.00498673	0.01395899	-0.02287542	-0.01010415	0.00718435	-0.06175674	-0.00004757	0.00380626	-0.17518363	0.00047579	0.00000002	0	0	0	0	0.00000001	0	0.00000001	0.00000001	0	0	0	0.0015349	0.00538515	0.00374619	-0.0052383	0.01264792	-0.01199653	0.0015349	0.00538515	0.00374619	0.00035284	0.01172511	-0.00616111	0.00262893	0.00299461	0.01162317	0	0.00344101	0	-0.00439657	-0.02031787	-0.00268705	-0.00042727	0	0	-0.00056997	0.00955379	-0.00390837	0.0015742	0.01378786	-0.01139941	-0.00382695	0.00827815	-0.00350125	-0.00797959	0.0174791	-0.01956899	-0.01498209	0.00925524	-0.00469547	-0.00993377	0.02019325	-0.02445446
2	-0.00000061	0.0000053	22.00000026	0.07613331	0.60280358	-0.15491291	4.93071981	33.69128437	0.00000001	71.99999992	0	0	-49.99980313	0	0	0	71.99999992	0	0	-49.99986444	0	0	0	-14.05334344	5.952333	-5.952333	14.05334344	-2.84551618	22.99646084	10.33675088	-10.33675088	-22.99646084	2.84551618	39.73137551	58.07153695	-39.73137551	12.16061679	27.0104305	36.14146493	0.3291915	6.11789604	0.44521118	3.05894802	0	0	0.00000004	0.00000033	0.00016933	-0.00019073	0	0	0.00075499	-0.02920914	-0.00456624	0.01574861	-0.01668813	-0.00749026	0.00464323	-0.06339987	-0.00281796	0.00703595	-0.17468235	-0.0003363	-0.00412692	0.00116622	0.00016185	-0.0001317	-0.00005268	-0.00026341	-0.00016858	-0.00050575	-0.00028448	0	0	0	0.00169165	0.00593512	0.00412878	-0.00577328	0.01393962	-0.0132217	0.00169165	0.00593512	0.00412878	0.00038887	0.01292257	-0.00679033	0.00284645	0.00330044	0.01233129	0	0.00417525	0	-0.00484558	-0.02239289	-0.00327623	-0.01136231	-0.00058311	-0.00225402	-0.00062818	0.0105295	-0.00430752	0.00173497	0.01519599	-0.01256361	-0.00421778	0.00912357	-0.00385882	-0.00879453	0.0192642	-0.02156753	-0.01651217	0.01020045	-0.00517501	-0.01094829	0.02225554	-0.02695193	-12.78185867	5.41379206	-5.41379206	12.78185867	-2.58806638	20.9158421	9.40152708	-9.40152708	-20.9158421	2.58806638	5.84167862	52.81747944	-5.84167862	0.0000366	51.03177222	-0.00016974	7.51511795	-0.00015254	9.39226244	-0.00007627	0	0	0.00000004	0.00000005	-0.00000691	0.00000014	0	0	0.00151106	-0.03182901	-0.00498824	0.01395899	-0.0228976	-0.01010415	0.00718435	-0.06175674	-0.00004757	0.00380626	-0.17518363	0.00047579	0.00000002	0	0	0	0	0.00000001	0	0.00000001	0.00000001	0	0	0	0.0015386	0.00539813	0.00375522	-0.00525094	0.01267843	-0.01202546	0.0015386	0.00539813	0.00375522	0.00035369	0.01175339	-0.00617597	0.00263418	0.00300183	0.01164078	0	0.00345749	0	-0.00440717	-0.02036688	-0.0027003	-0.00042727	0	0	-0.00057135	0.00957684	-0.0039178	0.001578	0.01382112	-0.01142691	-0.00383618	0.00829811	-0.00350969	-0.00799884	0.01752126	-0.0196162	-0.01501822	0.00927756	-0.0047068	-0.00995774	0.02024195	-0.02451344
3	-0.00000061	0.0000053	22.00000026	0.07586258	0.60256793	-0.15480164	4.95280607	33.76243999	0.00000001	71.99999992	0	0	-49.99980313	0	0	0	71.99999992	0	0	-49.99986444	0	0	0	-14.07278375	5.960567	-5.960567	14.07278375	-2.84945245	23.02827236	10.35104994	-10.35104994	-23.02827236	2.84945245	39.7464792	58.15186863	-39.7464792	12.22041343	26.84559732	36.12319753	0.4145693	6.14932262	0.56017395	3.07466131	0	0	0.00000004	0.00000033	0.00016933	-0.00019073	0	0	0.00074981	-0.02919116	-0.00456335	0.01574842	-0.01664553	-0.00749202	0.00464451	-0.06339904	-0.00281656	0.00703422	-0.1746827	-0.00033613	-0.00412483	0.00116554	0.00016194	-0.00013244	-0.00005297	-0.00026487	-0.00016952	-0.00050855	-0.00028606	0	0	0	0.00169399	0.00594333	0.00413449	-0.00578126	0.01395891	-0.01323999	0.00169399	0.00594333	0.00413449	0.00038941	0.01294045	-0.00679973	0.00284963	0.00330501	0.01234129	0	0.00418678	0	-0.00485228	-0.02242386	-0.00328546	-0.01142082	-0.00058876	-0.00227435	-0.00062905	0.01054407	-0.00431348	0.00173737	0.01521701	-0.01258099	-0.00422362	0.00913619	-0.00386416	-0.00880669	0.01929085	-0.02159737	-0.01653501	0.01021457	-0.00518217	-0.01096343	0.02228632	-0.02698922	-12.81231926	5.42669373	-5.42669373	12.81231926	-2.59423403	20.96568687	9.42393196	-9.42393196	-20.96568687	2.59423403	5.86812574	52.94334934	-5.86812574	0.00003643	51.12006144	-0.00016898	7.5146957	-0.00015178	9.39178005	-0.00007589	0	0	0.00000004	0.00000005	-0.00000691	0.00000014	0	0	0.00151384	-0.03183864	-0.00498979	0.01395899	-0.02292043	-0.01010415	0.00718435	-0.06175674	-0.00004757	0.00380626	-0.17518363	0.00047579	0.00000002	0	0	0	0	0.00000001	0	0.00000001	0.00000001	0	0	0	0.00154227	0.005411	0.00376417	-0.00526345	0.01270864	-0.01205412	0.00154227	0.005411	0.00376417	0.00035453	0.0117814	-0.00619069	0.00263937	0.00300899	0.01165818	0	0.00347385	0	-0.00441768	-0.02041541	-0.00271344	-0.00042727	0	0	-0.00057271	0.00959966	-0.00392713	0.00158176	0.01385406	-0.01145414	-0.00384532	0.00831789	-0.00351806	-0.0080179	0.01756302	-0.01966294	-0.01505401	0.00929967	-0.00471802	-0.00998147	0.02029019	-0.02457186
